<?xml version="1.0" encoding="UTF-8"?>
<svg width="34px" height="34px" viewBox="0 0 34 34" version="1.1" xmlns="http://www.w3.org/2000/svg" xmlns:xlink="http://www.w3.org/1999/xlink">
    <!-- Generator: Sketch 52.4 (67378) - http://www.bohemiancoding.com/sketch -->
    <title>Artboard</title>
    <desc>Created with Sketch.</desc>
    <g id="Artboard" stroke="none" stroke-width="1" fill="none" fill-rule="evenodd">
        <path d="M17.599688,23.1705197 C17.199896,22.7101777 17,22.3534583 17,22.1003615 C17,21.7207163 17.4317256,20.9517765 17.4317256,20.6888286 C17.4317256,20.4258806 17.4317256,20.0006148 17.4317256,19.8263267 C17.4317256,19.6520386 18.970236,17.5780997 21.0265761,17.0294879 C22.4012967,16.999871 23.4217218,16.8534219 24.8618214,17.6555276 C25.9135622,18.4576334 26.6896703,20.2222956 26.6896703,20.2222956 C26.6896703,20.2222956 26.8793052,21.9898554 26.8793052,21.9898554 C26.8793052,21.9898554 26.6896703,22.7723114 26.6896703,23.0348837 C26.6896703,23.2974559 27.0862502,23.7984451 26.9827777,24.0494149 C26.8793052,24.3003847 26.5098343,24.7483742 26.1517639,24.8589897 C25.9769756,25.119092 24.7399561,26.2597844 24.5323024,26.2597844 C24.6734956,26.3458678 25.5183465,27.6622791 25.3141509,28.1548234 C25.1099552,28.6473677 19.9825461,31.1382919 19.2698524,30.9939736 C18.5571587,30.8496553 18.6167172,28.7663917 18.7661876,28.2637448 C18.8658346,27.9286469 19.1579182,27.316835 19.6424385,26.4283091 C20.3544269,26.7998623 20.7631136,26.9157859 20.8684986,26.77608 C21.0265761,26.566521 20.195413,26.4246463 19.7931429,26.2597844 C19.3908728,26.0949225 18.370127,25.0334495 18.2365023,24.7225056 C18.2073826,24.7995635 18.1293362,24.9954738 17.7372277,24.8589897 C17.3451193,24.7225056 17.137774,24.1135922 17.137774,23.5742379 C17.2645054,23.5003772 17.4184768,23.3658045 17.599688,23.1705197 Z M21.2758865,20.9184856 C21.2152867,20.9815936 21.1225674,21.7817295 18.7382125,21.7817295 C18.68344,22.4159297 19.0928216,23.5767525 20.5891837,23.5767525 C22.0182171,23.0737724 22.2356639,21.6007389 21.2758865,20.9184856 Z M23.0666102,20.9634029 C22.1068328,21.6456561 22.4085376,23.0078084 23.7556021,23.4164235 C25.4408252,23.3884663 25.7098106,22.4159297 25.6550382,21.7817295 C23.2706832,21.7817295 23.12721,21.0265108 23.0666102,20.9634029 Z" id="Combined-Shape" fill="#000000"></path>
        <circle id="Oval" stroke="#000000" stroke-width="2" cx="18" cy="18" r="13"></circle>
        <path d="M12.1714407,20.2715565 C11.8441908,20.4732549 11.4663378,20.6757858 11.3752349,20.6757858 C11.3144997,20.6757858 11.3144997,20.3593238 11.3752349,19.7263999 C10.462606,19.7263999 10.0062915,19.7263999 10.0062915,19.7263999 C10.0062915,19.7263999 10.3801158,18.4927811 10.3801158,18.4089789 C10.3801158,18.3251767 8.82408984,17.7392105 8.82408984,17.7392105 C8.82408984,17.7392105 9.21815707,17.3423399 10.0062915,16.5485989 C9.52816891,15.8269245 8.85940507,15.4318644 8,15.3634186 C8.0143749,15.2220956 8.60069827,14.7732581 9.75897009,14.0169062 C9.43241795,13.0282994 8.93148381,12.3596722 8.25616766,12.0110247 C8.46371088,11.9307492 9.33940862,11.8458863 10.8832609,11.7564357 C10.7744054,10.5627641 10.5598098,9.87729534 10.2394739,9.70002945 C10.4761831,9.62490721 11.9932952,10.0816564 12.2746582,10.3864079 C12.356347,10.1515249 12.9671674,8.87323986 12.8709514,8.00001783 C13.0120734,7.99339133 14.4421748,9.83608773 14.5480901,9.83608773 C14.6540054,9.83608773 16.0191472,8.37846365 16.7524819,8.18924074 C16.7630392,8.62400287 16.6877144,10.6585732 17.0163995,10.820742 C17.2776478,10.7634648 17.9650887,10.532281 19.0787221,10.1271906 C18.2814639,11.4730367 17.9036486,12.1817082 17.9452764,12.2532053 C18.0077182,12.3604509 19.9676328,12.4953419 19.9953045,12.6155946 C20.0229762,12.7358472 18.5094615,14.1024681 18.3923849,14.1961996 C18.2753083,14.2899312 19.8777766,14.8475617 19.9953045,14.9305884 C20.1128323,15.0136152 17.9860499,15.9619615 17.880561,16.1096448 C17.7750721,16.257328 18.9069517,16.987091 19.0787221,17.0512721 C19.0893795,17.1855511 18.0125924,17.6424175 17.7896809,17.7392105 C17.8127967,17.8889461 18.1685241,18.6117869 18.0569002,18.7247349 C17.9452764,18.8376829 17.2475315,18.7768724 17.1853165,18.9249074 C17.1231016,19.0729424 17.6163392,19.6259933 17.6163392,19.6761966 C17.6163392,19.7263999 17.108325,19.9790242 16.7524819,20.0494171 C16.5921302,20.2570704 16.1213193,20.7990285 15.4875353,21.0372527 C15.4819535,21.1598762 15.4819535,21.3053672 15.4875353,21.4737256 C16.7315612,21.8804429 17.4707951,22.1004269 17.7052372,22.1336776 C17.7682083,22.2273856 18.477359,24.8257093 19.8326895,29.9286485 C15.3396861,30.3057097 11.9817796,29.1883187 9.75897009,26.5764753 C9.92312131,25.4081597 10.7555354,22.4378498 10.8832609,22.2857637 C11.0109864,22.1336776 13.2337487,21.5437575 13.3655743,21.3444995 C13.4973999,21.1452415 13.4481558,20.9686869 13.3655743,20.9686869 C13.2829929,20.9686869 12.5629297,20.6222041 12.1714407,20.2715565 Z M11.7447904,15.318142 C11.7601945,15.4274099 12.4529776,15.0486241 12.8196922,15.1384634 C13.1864068,15.2283027 13.7624575,15.4079813 13.828818,15.318142 C13.8834919,15.2441241 14.1887095,14.3589873 13.4948223,13.871311 C13.3465026,13.7670692 13.1502426,13.6811206 12.9007116,13.6248689 C11.8418344,13.6796353 11.4910748,14.414829 11.7447904,15.318142 Z M14.9943838,14.1330895 C14.8095981,14.1576321 14.3089535,14.464078 14.8006865,15.0798986 C15.396839,15.1294806 16.2245548,15.0929664 16.5661395,15.3139433 C16.8453319,15.2552088 16.9464989,14.8686534 16.8737211,14.7235164 C16.8009434,14.5783794 15.8576794,13.9809407 14.9943838,14.1330895 Z M15.9296164,22.0175493 L15.9296164,22.0591516 C16.9002104,24.0786331 17.3855074,25.1145168 17.3855074,25.1668028 C17.3855074,25.2452318 16.6542421,25.9183829 16.5002372,26.0424188 C16.3462323,26.1664547 16.4179518,26.3241282 16.5002372,26.3241282 C16.5825226,26.3241282 17.5510341,25.2493011 17.5510341,25.0883738 C17.5510341,24.981089 17.0490909,23.9574808 16.0452045,22.0175493 L15.9296164,22.0175493 Z M16.8062819,26.7327379 C16.8881828,26.7327379 16.9545766,26.6664555 16.9545766,26.5846921 C16.9545766,26.5029286 16.8881828,26.4366462 16.8062819,26.4366462 C16.724381,26.4366462 16.6579872,26.5029286 16.6579872,26.5846921 C16.6579872,26.6664555 16.724381,26.7327379 16.8062819,26.7327379 Z M15.6132343,22.178828 C15.5346924,22.1715604 15.4954215,22.1925447 15.4954215,22.2417808 C15.4954215,22.315635 15.9022763,25.5093358 15.851633,25.6259425 C15.9490461,25.6982645 15.957314,25.6267418 16.0040753,25.5264856 C16.0352494,25.4596481 15.9049691,24.3437623 15.6132343,22.178828 Z M13.4015884,22.4690772 C13.2947562,22.465953 13.2413401,22.5229768 13.2413401,22.6401486 C13.2413401,22.8159063 13.1173164,25.173858 13.1676933,25.173858 C13.2180702,25.173858 13.461258,25.0881842 13.3839574,24.7402375 C13.3659848,24.4647576 13.3718618,23.7077041 13.4015884,22.4690772 Z M12.2899147,25.6592394 C12.203715,25.6796753 12.182165,25.7234539 12.2252649,25.7905752 C12.2899147,25.8912572 12.6781473,26.1497462 12.6781473,26.2084151 C12.6781473,26.2670839 12.5770245,26.3942468 12.6275859,26.4332726 C12.6781473,26.4722984 13.0046005,26.4023062 12.9371936,26.2607688 C12.8922556,26.1664106 12.676496,25.9659008 12.2899147,25.6592394 Z M11.3077181,18.2762963 C11.2833615,18.2462119 11.2609419,18.2955184 11.2404594,18.4242159 C11.2097356,18.6172621 11.7194532,20.2257324 12.0062017,20.128565 C12.102,19.9454514 11.5636828,19.3415211 11.4853677,18.8405294 C11.4070525,18.3395378 11.4072253,18.2762963 11.3692285,18.2762963 C11.3438973,18.2762963 11.3233938,18.2762963 11.3077181,18.2762963 Z M11.152621,17.5712523 C11.1114878,17.5712523 11.0938123,17.6518593 11.0938123,17.6995843 C11.0938123,17.7473094 11.1948336,17.8149012 11.1948336,17.7572428 C11.1948336,17.6995843 11.1937542,17.5712523 11.152621,17.5712523 Z" id="Combined-Shape" fill="#000000"></path>
    </g>
</svg>