<?xml version="1.0" encoding="UTF-8"?>
<svg width="34px" height="34px" viewBox="0 0 34 34" version="1.1" xmlns="http://www.w3.org/2000/svg" xmlns:xlink="http://www.w3.org/1999/xlink">
    <!-- Generator: Sketch 52.4 (67378) - http://www.bohemiancoding.com/sketch -->
    <title>Artboard Copy</title>
    <desc>Created with Sketch.</desc>
    <g id="Artboard-Copy" stroke="none" stroke-width="1" fill="none" fill-rule="evenodd">
        <g id="earth" transform="translate(2.000000, 3.000000)">
            <path d="M30,14.5 C30,22.5081289 23.2842712,29 15,29 C6.71572875,29 7.24009309e-16,22.5081289 0,14.5 C-7.24009309e-16,6.49187113 6.71572875,2.79950266e-15 15,0 C23.2842712,-1.39975133e-15 30,6.49187113 30,14.5 Z" id="path3001"></path>
            <path d="M10.7089958,9.00615908 C11.9840708,9.39435166 9.25805847,10.6797706 10.1330598,9.80376585 C10.3636141,9.51668101 10.0472371,9.16603394 10.6171981,9.10519711 L10.6540246,9.035249 L10.7089917,9.00617219 L10.7089958,9.00615908 Z M8.33184625,3.97825442 C9.26156287,3.70612506 9.33790032,3.26565957 10.2741585,2.8409991 C10.4676129,2.39694725 10.9081624,2.23274482 11.2812639,2.00142803 C10.4382811,2.15403896 11.1129652,1.40018681 10.262594,2.04242304 C10.6262102,1.42994953 9.1101729,1.84579521 10.1807079,1.82952264 C9.65214547,2.41360183 8.53545174,3.35289513 7.7008211,3.82522157 C7.55573321,3.72595548 8.76522339,2.74697854 7.71392054,3.56915952 C7.3828426,4.15717286 6.35228695,4.36345933 7.05351686,3.64378299 C7.5570754,3.38239558 7.36656468,2.77365096 7.76269007,3.12512478 C8.4164938,2.85017879 8.26749851,2.78253987 8.90284575,2.45420913 C8.36696499,2.32941096 7.65878469,2.8966018 7.09924925,3.03281472 C8.57752086,1.84692414 6.16515213,2.83236107 5.85495456,3.53712753 C5.31094944,4.07194999 4.01666453,5.17020018 5.29196729,4.22081492 C5.59409306,4.37977751 7.16851366,2.58300988 7.01023171,3.52412772 C6.6601541,3.83639114 6.52955689,4.10495696 6.12361918,4.31175657 C5.46853051,4.99418959 7.42702137,3.71028728 6.22187665,4.66808251 C5.4206546,5.18818895 5.53758466,6.21591517 4.73869888,6.70397822 C4.21409643,6.86213117 4.067782,8.18065403 3.92778133,7.71630993 C3.20470734,7.06671854 5.40681223,6.50561708 4.1497849,6.56109434 C4.05421414,6.31887025 3.98896811,6.93510686 3.70957419,6.55667555 C3.36400557,7.01623024 3.78849322,7.6288748 3.11598768,7.50782832 C2.48665633,7.51268615 3.95499882,6.81758402 2.81531623,7.01494736 C2.63679055,6.93200515 2.34945917,7.38322971 2.06292212,7.75633566 C1.24084891,8.34280955 0.970251029,9.23375268 0.651409277,10.2283522 C-0.274802941,13.117617 -0.243438585,16.9529031 0.93973941,19.6726003 C3.54303939,25.6570743 9.16923251,29.2514078 15.6103148,28.9862801 C15.0044045,28.7434003 13.6222118,27.8968047 14.8907452,27.3563433 C14.1732783,26.8659768 14.509496,26.1237561 13.5260745,25.6374035 C14.1765491,25.0908584 13.6679208,24.2883311 12.8491418,24.4606926 C12.120928,24.5675705 11.7310054,23.714914 10.9700255,24.0815543 C9.89884804,24.1507612 8.73235098,23.7801412 7.75900461,23.2850308 C6.84003482,22.4250478 5.82971706,21.3549011 5.89811122,20.1507652 C6.13985623,19.5002045 6.29100672,19.0817589 6.13045276,18.4607899 C6.90282193,17.7939224 7.23690781,16.734951 8.28752614,16.7418501 C8.09632038,15.888595 10.5775914,14.8986708 8.91749997,14.8455313 C8.8890355,14.0113198 9.00129011,13.7541174 9.34946367,12.9312522 C9.24252698,11.514558 10.8362042,13.3006464 11.2130438,12.4817838 C11.9729139,11.6390768 9.85181903,10.7036606 11.524024,10.9346923 C12.1675482,10.9428611 12.386865,10.3891222 11.5450924,10.6395852 C10.8947347,10.5945506 10.3163339,10.741782 11.1489203,10.2098503 C10.4768353,10.0197737 11.9136382,9.75316352 11.203739,9.31189409 C11.1653699,9.05872278 11.4989202,8.95500939 11.1496253,8.98508 C10.9713099,8.74709225 11.6648535,8.43196088 11.0650466,8.29426553 C11.3830999,7.40548903 11.3442712,8.13321042 11.555563,8.01265999 C11.8127624,7.96304462 12.1398628,8.29313659 11.7228804,8.66390487 C12.0825192,9.30009733 12.5519624,10.0247797 12.3374933,10.4676285 C12.7181176,10.1708109 13.4496138,9.93008638 13.6581255,9.65114922 C13.099653,8.62975186 14.7832706,8.1310837 14.0341823,9.05207464 C13.7322259,9.73718744 14.5872872,9.6295969 14.0301172,9.22785146 C14.4836563,9.32958637 14.7712389,8.87548248 14.3709491,8.38822336 C14.298081,7.70624648 13.5032603,8.97549549 13.3369766,8.17223266 C12.8183726,6.95578112 14.6980846,6.78073982 14.9246439,5.74531634 C14.4745449,5.84178862 15.9904479,4.38523971 16.6463543,5.06373857 C17.3706548,5.09765953 18.7975286,5.95257209 17.3038376,5.77952637 C17.3476239,5.73140997 17.5305488,6.55968603 18.0377752,6.45471826 C18.6110596,6.58682028 17.6479928,6.05210046 18.1561129,6.09725769 C18.0483936,5.69249606 18.5349383,5.42668415 18.0162758,5.09598723 C18.8747947,4.97247192 18.1723733,5.43698137 18.7425621,5.69164081 C19.3335203,6.08221669 18.3945521,4.36018657 19.2488366,5.01006304 C20.3286582,3.89367583 17.9733527,4.93795971 17.9308327,3.92070176 C17.4528913,3.1282835 18.2129367,2.53878772 18.2061265,3.6284683 C18.4118989,4.41826379 19.33793,4.19000309 19.9698313,4.3053707 C20.2522857,4.36068888 18.4903915,3.55776758 19.0637109,3.29110042 C19.4718798,3.16520182 19.6303428,3.2916991 19.3797492,3.03931463 C19.2097392,2.74866624 18.8643808,2.40437653 18.7015899,2.10292918 C17.6281346,1.51827982 20.0289388,2.09193863 19.2048914,1.48617941 C18.8439035,1.49714771 19.4975962,0.859223652 18.589052,1.00308252 C17.9447101,1.4121033 16.7671742,0.31871093 18.011796,0.936720766 C18.9766734,1.01339684 17.0097136,0.137631557 16.5314217,0.081470096 C14.9937506,-0.0989820936 13.7745707,0.0503258578 12.2746303,0.238368682 C11.4511553,0.341608841 11.5900463,0.920117499 12.2054885,0.798592081 C12.0391231,1.26308442 11.2035229,1.13724854 12.0978451,1.17706901 C11.5362888,1.40901299 13.2523688,1.47711375 12.4696033,1.95888216 C12.9315646,2.17149747 13.6612152,2.5206279 13.1644668,2.61024107 C14.1565617,2.58715044 12.4555273,3.39228228 12.4086267,3.79744303 C11.7357825,4.05863658 11.1587834,4.7611965 10.8857325,4.49509951 C11.3872818,4.87156375 10.4000931,4.93951056 10.1287826,4.79179737 C9.45652242,4.55548021 8.49830337,5.20730095 7.83719881,5.65389004 C6.66106466,6.44961527 7.45974602,4.3848691 8.33160503,3.97862503 L8.33184625,3.97825442 Z M22.2863565,26.8830077 C22.6605444,26.1283345 23.3556649,25.6196314 24.0773372,25.0656 C25.0001034,24.7344983 23.4612641,26.3406647 22.9457673,26.5370303 C22.7402636,26.6752559 22.5365763,26.8279524 22.2863565,26.8830305 L22.2863565,26.8830077 Z M22.4624525,25.8086418 C22.3626998,26.8856875 20.7766037,26.9144239 20.2689917,27.7069562 C19.755545,27.95771 18.6576114,28.6658062 19.9539406,28.2054419 C23.2705606,27.0275337 25.0323964,25.3355057 26.1018217,24.2644468 C28.5467229,21.8160922 30.0848613,18.1094928 29.9963752,14.0744202 C29.880111,13.7792675 29.3160549,11.1870939 29.2374396,12.4171154 C29.2282668,13.7173245 29.1974626,15.0228361 29.3084971,16.3161462 C28.9280364,18.0456341 28.3849132,14.2952459 28.2803069,15.2473109 C27.8904544,15.1553601 27.8463457,14.9541709 27.3618628,14.7208927 C27.0079011,15.2456232 26.2183779,15.9026781 25.7233818,15.5074953 C25.3821645,16.5258708 24.5076479,15.6532015 24.1790523,15.4089419 C23.3483349,16.0964494 25.3584572,16.8716486 25.5802272,16.3376871 C25.8478346,15.5430452 25.6825672,15.713069 26.1904011,16.0105594 C26.8357359,16.1440698 26.2977584,17.3477724 26.102067,17.8950758 C25.5747545,18.584921 25.31019,19.5628716 24.4346163,20.1256836 C23.9364896,20.761705 23.2922412,21.106542 23.2986659,19.9641438 C22.7064812,19.1274806 21.9414128,18.9395535 21.461836,17.9917647 C21.4101929,17.2848715 20.8002642,17.0928963 20.6298921,17.5234409 C20.217115,17.258775 21.2493527,18.6685075 21.4962375,18.8619081 C21.8759682,19.9167173 22.5708026,20.6463602 23.6507994,20.9525399 C23.7391102,22.3690061 26.000381,18.7722209 25.4227395,20.6309942 C25.01137,22.0166143 23.8989692,23.005056 23.1430123,24.1984158 C22.7020423,24.6909261 22.0962488,25.2737509 22.4621663,25.8085107 L22.4624525,25.8086418 Z M20.2613405,25.4648881 C20.7376815,25.4811555 21.3659849,24.683303 20.7656583,24.7510958 C20.3576121,24.7602921 20.3700586,25.1890754 20.2613405,25.4648881 Z M14.8467545,3.20442362 C15.2360756,2.64713658 15.6054566,3.29984108 15.2322324,3.33220947 C15.6963606,3.84968744 14.8352309,3.15878174 14.9508936,3.98288418 C14.81525,3.93384012 14.2171896,2.68358736 14.8467545,3.20443502 L14.8467545,3.20442362 Z M15.7712146,6.38447368 C15.8640694,6.95050708 14.7145804,7.32684588 15.6831374,7.75965974 C15.5822399,8.33986179 15.1152206,9.34084717 14.6100909,9.35892147 C13.9324573,9.83417857 15.4392897,9.7772987 15.6810931,9.41158667 C16.2383098,9.63872984 16.1110243,9.16924284 16.221991,8.87488266 C15.9805147,8.21354583 17.0365298,8.93619843 16.4467806,8.15424845 C15.8460685,8.66059105 16.8295484,7.59462943 17.2147693,7.75964719 C17.038685,7.31369669 15.7770319,8.46910613 15.9912674,7.54475121 C15.1720561,7.01607515 17.2918076,6.04549678 15.7711912,6.38446113 L15.7712146,6.38447368 Z M18.5492672,11.8610998 C18.6015861,12.1767615 18.4597473,12.6980482 18.20621,13.0910643 C18.8188371,13.8128959 20.0304241,12.5414061 20.9679088,13.0919709 C22.1155405,12.389411 19.6134592,11.3592901 19.4002166,12.4773878 C18.9223453,12.1195908 19.67655,11.6123302 18.9012196,11.7121665 C18.7102358,11.6800421 18.7080397,11.3744394 18.5492263,11.8611398 L18.5492672,11.8610998 Z M23.1667779,13.1743658 C23.9328392,13.5821721 24.7575407,12.8091623 23.8263055,12.3310886 C23.4216878,11.8226763 23.301779,11.4029136 22.7501051,11.1786668 C22.4711667,11.0671478 23.3552561,9.8602124 22.4055702,10.4146999 C21.7446993,10.7094706 22.0691364,11.5847969 22.4291578,11.8571087 C23.3658248,12.4239061 23.2699795,12.1011003 23.166775,13.1743658 L23.1667779,13.1743658 Z M13.7463738,14.7214002 C13.1179769,15.1108015 13.1620739,14.1595404 13.4187477,13.8812019 C13.3718618,13.5675701 13.9207292,12.7528982 13.7243837,13.6832 C13.5812057,13.9692015 13.9616489,14.3777206 13.7463738,14.7214173 L13.7463738,14.7214002 Z M9.87249614,15.065211 C10.3132851,16.102687 12.3576395,14.9234788 13.4346576,15.4842838 C13.9531391,15.2955072 14.2892049,15.4017293 14.1069763,15.9452525 C13.3604812,16.2088236 14.3352527,16.5927913 14.5828267,16.5262528 C15.304791,16.6219781 15.4831648,17.2601149 16.270194,17.3397102 C16.8863839,17.519119 16.4368632,15.974445 17.5226072,16.4857709 C17.7524198,16.8409337 18.2652474,16.661485 18.6936016,16.7587612 C19.4169092,16.9978323 19.7962602,16.1465728 20.4847575,16.2648768 C20.721462,15.7360582 20.6532197,14.1428858 20.5656799,14.3817288 C20.147027,14.7528278 19.4604514,14.7829839 18.898054,15.0496796 C18.6112541,14.8381305 18.3396224,15.3121788 18.2464697,14.564513 C18.0502176,14.1523791 18.0119671,13.4165956 17.2241202,14.1197827 C16.9931804,14.1684761 17.9521587,14.6800859 17.753693,14.9468101 C17.2701855,14.6382071 17.317857,14.886053 17.2286409,15.3230804 C16.7813746,15.0594865 16.4299887,13.9083818 15.7980875,13.3920955 C15.1182344,13.0775058 15.0636242,12.4403725 14.5853908,12.3242865 C14.2142576,13.2799436 16.2113727,13.9282806 15.8938159,14.2054959 C15.0977336,13.7297598 16.2664852,15.0990618 15.2134956,15.0595492 C15.2204939,15.7894201 13.7803139,14.5940762 15.0533972,14.936262 C15.958875,14.4146218 14.326702,13.7972391 14.0305804,13.2933254 C13.7468527,12.1712936 12.9964912,13.852226 12.4195505,12.9188283 C12.3592807,13.4144061 11.1643338,13.7944339 11.2812639,14.5495632 C10.8548663,14.9402873 10.5026452,15.0761696 9.87255455,15.0652794 L9.87249614,15.065211 Z M10.0485921,5.95451066 C10.0831811,5.96371942 10.5762843,5.13837345 10.5108221,5.63219519 C11.6860218,5.77849437 10.4478481,6.86911572 9.82851595,6.12641604 L10.0485921,5.95451066 Z" id="path16" fill="#000000"></path>
        </g>
    </g>
</svg>