<?xml version="1.0" encoding="UTF-8"?>
<svg width="484px" height="484px" viewBox="0 0 484 484" version="1.1" xmlns="http://www.w3.org/2000/svg" xmlns:xlink="http://www.w3.org/1999/xlink">
    <!-- Generator: Sketch 52.4 (67378) - http://www.bohemiancoding.com/sketch -->
    <title>Artboard</title>
    <desc>Created with Sketch.</desc>
    <g id="Artboard" stroke="none" stroke-width="1" fill="none" fill-rule="evenodd">
        <path d="M244.333339,332.000509 C237.844864,324.46691 234.600627,318.629118 234.600627,314.487133 C234.600627,308.274156 241.607371,295.690286 241.607371,291.387085 C241.607371,287.083884 241.607371,280.124315 241.607371,277.272052 C241.607371,274.419788 266.57682,240.47932 299.950451,231.501167 C322.261653,231.016479 338.82277,228.619808 362.195048,241.746446 C379.264409,254.873084 391.860353,283.752169 391.860353,283.752169 C391.860353,283.752169 394.938055,312.678676 394.938055,312.678676 C394.938055,312.678676 391.860353,325.483742 391.860353,329.780795 C391.860353,334.077848 398.296696,342.276645 396.617376,346.383822 C394.938055,350.490998 388.941681,357.822445 383.130333,359.632692 C380.293585,363.889323 360.21722,382.557007 356.847078,382.557007 C359.138591,383.965781 372.850205,405.509142 369.536186,413.569738 C366.222167,421.630334 283.006235,462.394859 271.439483,460.033058 C259.872731,457.671258 260.839342,423.578189 263.265192,415.352262 C264.882425,409.86831 269.622833,399.855873 277.486416,385.314951 C289.041722,391.3955 295.674554,393.292616 297.384913,391.006298 C299.950451,387.57682 286.460984,385.255008 279.932291,382.557007 C273.403598,379.859006 256.837275,362.487765 254.668597,357.3991 C254.195996,358.66017 252.929331,361.866284 246.565557,359.632692 C240.201783,357.3991 236.836647,347.434098 236.836647,338.607446 C238.893451,337.398699 241.392348,335.196387 244.333339,332.000509 Z M303.996666,295.145474 C303.013153,296.178249 301.508355,309.27265 262.811165,309.27265 C261.922229,319.651476 268.566339,338.648597 292.851736,338.648597 C316.044414,330.417217 319.573494,306.310698 303.996666,295.145474 Z M333.059442,295.880554 C317.482614,307.045779 322.379169,329.337702 344.241523,336.024778 C371.592063,335.567253 375.957596,319.651476 375.06866,309.27265 C336.371471,309.27265 334.042954,296.91333 333.059442,295.880554 Z" id="Combined-Shape" fill="#000000"></path>
        <ellipse id="Oval" stroke="#000000" stroke-width="16" cx="241.5" cy="242" rx="220.5" ry="218"></ellipse>
        <path d="M143.660835,295.25151 C138.217971,298.567554 131.933469,301.897286 130.418234,301.897286 C129.408078,301.897286 129.408078,296.694458 130.418234,286.288802 C115.239267,286.288802 107.649783,286.288802 107.649783,286.288802 C107.649783,286.288802 113.867278,266.007358 113.867278,264.629599 C113.867278,263.25184 87.9872457,253.618198 87.9872457,253.618198 C87.9872457,253.618198 94.5414248,247.093405 107.649783,234.043819 C99.6975834,222.179052 88.5746133,215.684024 74.2808726,214.558732 C74.5199579,212.235296 84.271767,204.856135 103.5363,192.421249 C98.1050407,176.16795 89.7734366,165.175312 78.5414877,159.443334 C81.9933743,158.123557 96.558097,156.728358 122.235656,155.257737 C120.425157,135.633048 116.855973,124.363524 111.528104,121.449165 C115.465083,120.21411 140.697896,127.723345 145.377563,132.733645 C146.736221,128.872025 156.895468,107.856241 155.295191,93.4999387 C157.642352,93.3909949 181.42799,123.686046 183.189588,123.686046 C184.951185,123.686046 207.656407,99.7218185 219.853329,96.6108786 C220.028919,103.758633 218.776107,137.208209 224.242841,139.874363 C228.587959,138.932691 240.021568,135.131888 258.54367,128.471954 C245.283562,150.598484 238.999689,162.249476 239.692048,163.424931 C240.730588,165.188114 273.328151,167.405804 273.78839,169.382832 C274.24863,171.359859 249.07565,193.827939 247.128417,195.368942 C245.181183,196.909945 271.833651,206.07773 273.78839,207.442741 C275.743129,208.807752 240.370199,224.399143 238.615693,226.827145 C236.861187,229.255148 255.68676,241.252896 258.54367,242.308073 C258.720924,244.5157 240.811656,252.026863 237.104163,253.618198 C237.488627,256.079943 243.405132,267.963886 241.54859,269.82082 C239.692048,271.677753 228.08706,270.677993 227.052293,273.111778 C226.017525,275.545564 234.221119,284.638058 234.221119,285.46343 C234.221119,286.288802 225.771759,290.4421 219.853329,291.599403 C217.186338,295.013349 209.355748,303.92347 198.814567,307.840021 C198.72173,309.856026 198.72173,312.247986 198.814567,315.015902 C219.505372,321.702582 231.800411,325.319252 235.699682,325.865915 C236.747026,327.406532 248.541717,370.124555 271.083756,454.019985 C196.355519,460.219101 140.506367,441.848511 103.5363,398.908215 C106.266485,379.700394 120.111308,330.866691 122.235656,328.366303 C124.360004,325.865915 161.329285,316.167268 163.521827,312.891345 C165.714368,309.615422 164.895332,306.712758 163.521827,306.712758 C162.148321,306.712758 150.172133,301.016369 143.660835,295.25151 Z M136.564731,213.814358 C136.820933,215.610789 148.343394,209.383319 154.442641,210.860332 C160.541888,212.337345 170.122841,215.291371 171.226558,213.814358 C172.135901,212.597459 177.212321,198.045271 165.671497,190.027575 C163.204623,188.313777 159.9404,186.900729 155.790167,185.975916 C138.178779,186.87631 132.344898,198.963342 136.564731,213.814358 Z M190.612404,194.331373 C187.539024,194.734869 179.212236,199.773025 187.390804,209.897491 C197.306095,210.712649 211.072774,210.112334 216.754058,213.745328 C221.397622,212.779697 223.080246,206.424491 221.869796,204.038351 C220.659346,201.65221 204.970853,191.829953 190.612404,194.331373 Z M206.16732,323.956694 L206.16732,324.640662 C222.310369,357.842167 230.381894,374.872727 230.381894,375.73234 C230.381894,377.021761 218.219392,388.088775 215.657961,390.128 C213.096531,392.167226 214.28938,394.759476 215.657961,394.759476 C217.026543,394.759476 233.134956,377.088663 233.134956,374.44292 C233.134956,372.679092 224.786569,355.85035 208.089796,323.956694 L206.16732,323.956694 Z M220.748138,401.477267 C222.110325,401.477267 223.214595,400.387545 223.214595,399.043304 C223.214595,397.699063 222.110325,396.60934 220.748138,396.60934 C219.385951,396.60934 218.28168,397.699063 218.28168,399.043304 C218.28168,400.387545 219.385951,401.477267 220.748138,401.477267 Z M200.90521,326.608215 C199.598891,326.488731 198.945731,326.833726 198.945731,327.643197 C198.945731,328.857405 205.712595,381.363791 204.870289,383.280876 C206.490477,384.469894 206.62799,383.294018 207.405729,381.645745 C207.924222,380.546896 205.757382,362.201053 200.90521,326.608215 Z M164.120817,331.380089 C162.34397,331.328725 161.455546,332.26623 161.455546,334.192606 C161.455546,337.08217 159.392768,375.848332 160.230643,375.848332 C161.068518,375.848332 165.11325,374.439803 163.827576,368.719347 C163.528654,364.190289 163.626401,351.74387 164.120817,331.380089 Z M145.631312,383.828298 C144.197625,384.164277 143.839204,384.884024 144.556047,385.987539 C145.631312,387.642812 152.088448,391.892529 152.088448,392.857081 C152.088448,393.821633 150.40656,395.912268 151.247504,396.553876 C152.088448,397.195483 157.518061,396.044769 156.39694,393.717808 C155.649526,392.166501 152.060983,388.869998 145.631312,383.828298 Z M129.295285,262.448217 C128.890183,261.95361 128.517297,262.76424 128.176629,264.880104 C127.665626,268.053901 136.143319,294.498134 140.912558,292.900642 C142.505889,289.890143 133.552525,279.96116 132.249977,271.724553 C130.947428,263.487946 130.950301,262.448217 130.318334,262.448217 C129.897022,262.448217 129.556005,262.448217 129.295285,262.448217 Z M126.556242,250.856864 C125.983633,250.856864 125.737576,252.182091 125.737576,252.966721 C125.737576,253.75135 127.143876,254.8626 127.143876,253.91466 C127.143876,252.966721 127.12885,250.856864 126.556242,250.856864 Z" id="Combined-Shape" fill="#000000"></path>
    </g>
</svg>